<?xml version="1.0" standalone="no"?>
<!DOCTYPE svg PUBLIC "-//W3C//DTD SVG 20010904//EN"
 "http://www.w3.org/TR/2001/REC-SVG-20010904/DTD/svg10.dtd">
<svg version="1.0" xmlns="http://www.w3.org/2000/svg"
 width="512.000000pt" height="512.000000pt" viewBox="0 0 512.000000 512.000000"
 preserveAspectRatio="xMidYMid meet">

<g transform="translate(0.000000,512.000000) scale(0.100000,-0.100000)"
fill="#594AE2" stroke="none">
<path d="M1354 4641 c-2 -2 -4 -143 -4 -313 l0 -308 1246 0 1246 0 70 -37 c39
-20 94 -59 124 -85 69 -63 88 -112 82 -212 -3 -64 -8 -81 -34 -118 -36 -51
-117 -103 -186 -117 -81 -18 -303 -30 -863 -46 -291 -8 -549 -18 -572 -21 -47
-6 -68 -25 -149 -140 -134 -190 -440 -612 -458 -633 -20 -21 -27 -23 -106 -19
-47 2 -91 7 -98 12 -22 13 8 59 463 706 293 416 301 428 287 442 -7 7 -130 12
-384 15 l-373 4 -180 -258 c-98 -142 -353 -503 -566 -804 -501 -708 -511 -721
-501 -731 4 -4 165 -8 357 -9 193 -1 413 -4 489 -8 l139 -6 -58 -85 c-32 -47
-173 -246 -314 -443 -418 -583 -504 -707 -496 -715 3 -4 190 -8 413 -10 l407
-3 180 248 c98 136 267 370 375 518 107 149 231 320 274 382 l79 112 236 -5
c905 -18 1211 -32 1311 -60 95 -27 203 -103 236 -165 23 -45 19 -173 -7 -218
-38 -68 -163 -135 -281 -151 -40 -6 -438 -13 -884 -17 l-811 -6 -189 -270
c-209 -298 -239 -345 -229 -355 4 -4 568 -6 1254 -6 l1248 1 82 36 c121 52
183 93 279 182 106 99 190 210 247 329 69 144 79 194 80 396 0 198 -9 241 -76
370 -108 209 -341 388 -635 489 -153 52 -240 60 -836 76 -524 14 -596 19 -586
45 2 4 24 35 49 67 l46 60 483 6 c266 4 577 7 693 7 l209 0 90 46 c357 185
571 512 572 874 0 118 -11 179 -54 293 -53 141 -213 327 -369 432 -151 99
-374 183 -550 206 -82 11 -2487 30 -2497 20z"/>
</g>
</svg>
