<?xml version="1.0" standalone="no"?>
<!DOCTYPE svg PUBLIC "-//W3C//DTD SVG 20010904//EN"
 "http://www.w3.org/TR/2001/REC-SVG-20010904/DTD/svg10.dtd">
<svg version="1.0" xmlns="http://www.w3.org/2000/svg"
 width="192.000000pt" height="192.000000pt" viewBox="0 0 192.000000 192.000000"
 preserveAspectRatio="xMidYMid meet">

<g transform="translate(0.000000,192.000000) scale(0.100000,-0.100000)"
fill="#594AE2" stroke="none">
<path d="M510 1626 l0 -116 468 0 469 0 42 -30 c66 -48 77 -112 27 -159 -32
-30 -99 -38 -371 -46 -182 -5 -233 -9 -245 -21 -8 -8 -58 -74 -110 -147 -90
-125 -97 -132 -133 -135 -25 -2 -37 1 -37 10 0 7 63 103 140 213 77 110 140
203 140 207 0 5 -65 8 -144 8 l-143 0 -28 -42 c-16 -24 -120 -172 -232 -330
-112 -158 -203 -290 -203 -293 0 -3 81 -5 180 -5 127 0 180 -3 180 -11 0 -6
-70 -110 -156 -231 -101 -141 -153 -223 -147 -229 5 -5 70 -8 153 -7 l143 3
166 233 166 233 280 -4 c226 -4 287 -7 317 -20 108 -46 118 -136 21 -183 -34
-16 -74 -18 -364 -22 l-325 -4 -77 -112 -78 -111 33 -9 c18 -4 231 -6 473 -4
l440 5 50 25 c65 33 139 113 173 186 22 48 27 71 27 142 0 75 -4 91 -30 139
-37 67 -90 113 -182 157 -87 42 -173 54 -400 54 -190 0 -204 4 -163 48 20 22
26 22 278 22 l257 0 50 29 c66 38 130 108 163 179 35 75 37 183 5 254 -43 93
-127 165 -249 210 -57 21 -73 22 -541 26 l-483 3 0 -115z"/>
</g>
</svg>
