<?xml version="1.0" standalone="no"?>
<!DOCTYPE svg PUBLIC "-//W3C//DTD SVG 20010904//EN"
 "http://www.w3.org/TR/2001/REC-SVG-20010904/DTD/svg10.dtd">

<!--fill="#594AE2"-->
<!--fill="#7C4DFF"-->

<svg version="1.0" xmlns="http://www.w3.org/2000/svg"
 width="410.000000pt" height="412.000000pt" viewBox="0 0 410.000000 412.000000"
 preserveAspectRatio="xMidYMid meet">
	<g transform="translate(0.000000,412.000000) scale(0.100000,-0.100000)"
	fill="#594AE2" stroke="none">
		<path d="M1080 3486 l0 -256 1000 0 1001 0 47 -24 c127 -65 175 -128 174 -227
0 -89 -43 -148 -134 -189 -58 -26 -210 -35 -788 -50 -223 -6 -416 -13 -430
-16 -17 -4 -44 -33 -89 -97 -35 -51 -136 -192 -224 -314 l-161 -223 -77 0
c-43 0 -80 4 -83 8 -6 11 79 137 375 557 124 176 231 330 238 342 10 20 9 23
-13 29 -14 3 -154 7 -313 7 l-287 2 -151 -216 c-82 -119 -310 -442 -505 -718
-195 -276 -356 -506 -358 -511 -2 -6 143 -10 397 -10 221 0 401 -3 401 -7 0
-13 -106 -163 -410 -587 -157 -218 -286 -403 -288 -411 -3 -13 42 -15 331 -15
l335 0 350 483 c192 265 355 493 363 506 l14 23 400 -6 c502 -9 759 -21 839
-42 69 -18 155 -77 187 -127 16 -26 19 -45 17 -99 -4 -81 -22 -109 -96 -150
-110 -63 -93 -61 -834 -65 l-678 -4 -11 -22 c-7 -12 -84 -122 -171 -245 -101
-140 -158 -228 -154 -238 5 -13 120 -14 1003 -12 l998 3 65 23 c215 78 425
315 486 552 27 100 25 295 -3 385 -46 146 -147 272 -293 368 -112 72 -156 93
-275 134 -124 43 -202 49 -700 58 -367 6 -425 10 -425 27 0 5 17 31 38 57 l37
48 557 5 557 6 93 48 c106 56 234 169 301 268 145 213 177 468 84 678 -90 204
-297 378 -537 453 -198 61 -127 58 -1207 62 l-993 4 0 -255z"/>
	</g>
</svg>
